<?xml version="1.0" encoding="UTF-8"?><svg id="a" xmlns="http://www.w3.org/2000/svg" viewBox="0 0 28.98 7.95"><defs><style>.b{fill:#fff;}</style></defs><path class="b" d="M3.18,6.7c.2,0,.38-.02,.53-.05s.28-.08,.39-.13,.2-.11,.28-.16,.15-.11,.21-.16,.12-.09,.16-.13,.1-.05,.15-.05,.09,0,.12,.03,.05,.04,.07,.06l.52,.64c-.33,.39-.72,.69-1.17,.9s-.95,.31-1.52,.31c-.47,0-.88-.08-1.25-.25s-.67-.41-.92-.71-.44-.66-.57-1.07-.19-.86-.19-1.34c0-.67,.11-1.29,.32-1.85s.5-1.05,.86-1.45,.79-.72,1.29-.94,1.02-.34,1.58-.34c.28,0,.53,.03,.76,.08s.43,.13,.62,.22,.35,.21,.5,.34,.28,.28,.39,.44l-.52,.62s-.08,.08-.13,.12-.11,.05-.19,.05c-.08,0-.16-.03-.22-.09s-.15-.13-.25-.21-.23-.15-.39-.21-.37-.09-.64-.09c-.34,0-.66,.07-.96,.22s-.56,.36-.78,.64-.39,.61-.52,1.01-.19,.84-.19,1.32c0,.35,.04,.67,.13,.94s.2,.51,.35,.7,.32,.34,.52,.44,.42,.15,.66,.15Z"/><path class="b" d="M7.9,7.87h-1.49L7.35,.09h1.49l-.95,7.78Z"/><path class="b" d="M11.33,4.85l-.38,3.02h-1.47L10.44,.09h2.31c.47,0,.87,.05,1.21,.15s.61,.23,.83,.41,.37,.38,.47,.62,.15,.5,.15,.79-.04,.58-.13,.84-.21,.5-.37,.72-.36,.41-.59,.57-.5,.29-.8,.38c.18,.1,.31,.25,.42,.45l1.44,2.86h-1.33c-.12,0-.23-.03-.32-.08s-.15-.12-.19-.21l-1.16-2.46c-.04-.09-.1-.16-.17-.21s-.17-.06-.31-.06h-.56Zm.45-3.62l-.32,2.57h.82c.29,0,.53-.04,.74-.12s.38-.19,.51-.33,.23-.3,.3-.48,.1-.38,.1-.59c0-.33-.11-.59-.32-.77s-.54-.28-.99-.28h-.83Z"/><path class="b" d="M19.27,6.7c.2,0,.38-.02,.53-.05s.28-.08,.39-.13,.2-.11,.28-.16,.15-.11,.21-.16,.12-.09,.16-.13,.1-.05,.15-.05,.09,0,.12,.03,.05,.04,.07,.06l.52,.64c-.33,.39-.72,.69-1.17,.9s-.95,.31-1.52,.31c-.47,0-.88-.08-1.25-.25s-.67-.41-.92-.71-.44-.66-.57-1.07-.19-.86-.19-1.34c0-.67,.11-1.29,.32-1.85s.5-1.05,.86-1.45,.79-.72,1.29-.94,1.02-.34,1.58-.34c.28,0,.53,.03,.76,.08s.43,.13,.62,.22,.35,.21,.5,.34,.28,.28,.39,.44l-.52,.62s-.08,.08-.13,.12-.11,.05-.19,.05c-.08,0-.16-.03-.22-.09s-.15-.13-.25-.21-.23-.15-.39-.21-.37-.09-.64-.09c-.34,0-.66,.07-.96,.22s-.56,.36-.78,.64-.39,.61-.52,1.01-.19,.84-.19,1.32c0,.35,.04,.67,.13,.94s.2,.51,.35,.7,.32,.34,.52,.44,.42,.15,.66,.15Z"/><path class="b" d="M28.98,7.87h-1.15c-.12,0-.22-.03-.3-.09s-.12-.14-.14-.24l-.35-1.57h-3.05l-.74,1.56c-.04,.09-.11,.16-.21,.23s-.2,.1-.32,.1h-1.16L25.47,.09h1.52l1.99,7.78Zm-4.5-2.94h2.33l-.57-2.54c-.03-.12-.06-.26-.08-.42s-.06-.34-.08-.53c-.07,.19-.14,.37-.21,.53s-.13,.31-.18,.43l-1.2,2.53Z"/></svg>