<?xml version="1.0" encoding="utf-8"?>
<!-- Generator: Adobe Illustrator 26.1.0, SVG Export Plug-In . SVG Version: 6.00 Build 0)  -->
<svg version="1.1" id="Layer_1_xA0_Image_00000135671609158375470260000007373393229126782614_"
	 xmlns="http://www.w3.org/2000/svg" xmlns:xlink="http://www.w3.org/1999/xlink" x="0px" y="0px" viewBox="0 0 193.53 61.28"
	 style="enable-background:new 0 0 193.53 61.28;" xml:space="preserve">
<style type="text/css">
	.st0{fill:#FFFFFF;}
</style>
<g>
	<g>
		<path class="st0" d="M146.87,47.66c-3.94,5.11-8.96,8.23-15.18,8.96c-6.42,0.75-11.57-1.93-15.7-6.97
			c-0.88,0.82-1.71,1.6-2.54,2.37c-2.91,2.68-6.15,4.71-10.2,5.06c-4.43,0.38-8.06-1.2-10.8-4.69c-3.08-3.93-3.23-8.49-2.47-13.12
			c0.54-3.34,1.44-6.62,2.18-9.93c0.14-0.61,0.29-1.22,0.5-2.12c-3.55,0.39-6.89,0.76-10.29,1.14c1.63,7.7-0.38,14.51-4.26,20.92
			c-1.36,2.25-3.08,4.21-5.54,5.3c-3.21,1.43-6.38,1.12-9.44-0.49c-1.87-0.98-3.39-2.36-4.73-4.62c-0.91,1.06-1.58,2.13-2.51,2.89
			c-6.09,4.98-13.04,7.23-20.85,5.77c-5.94-1.11-10.34-4.58-13.26-9.89c-0.11-0.2-0.22-0.41-0.78-0.97
			c-0.21,0.39-0.33,0.86-0.63,1.16c-2.54,2.53-5.77,3.85-9.09,4.9c-1.5,0.47-3.14,0.52-4.72,0.68c-0.89,0.09-1.74-0.13-1.97-1.15
			c-0.23-1.04,0.43-1.52,1.33-1.8c8.38-2.58,11.89-9.02,13.32-16.99c0.76-4.25,1.75-8.36,4.43-11.85c3.29-4.29,7.66-6.66,13.03-7.14
			c2.79-0.25,5.48,0.18,8.05,1.36c2.06,0.95,3.66,2.42,4.81,4.34c0.94,1.58,0.46,3.61-1.01,4.71c-1.47,1.1-3.66,1.06-4.78-0.38
			c-1.15-1.48-2.44-2.47-4.32-2.68c-2.25-0.25-4.38,0.13-6.38,1.18c-2.48,1.31-4.14,3.35-5.15,5.92c-1.7,4.32-1.86,8.73-0.52,13.14
			c1.67,5.52,6.94,9.06,12.69,8.49c5.48-0.54,10.37-2.37,13.5-7.3c1.36-2.15,2.11-4.53,2.48-7.06c0.5-3.43,1.05-6.86,1.66-10.27
			c0.36-2.01,2.33-3.25,4.31-2.86c1.95,0.39,3.2,2.18,2.91,4.17c-0.52,3.63-1.07,7.25-1.53,10.89c-0.31,2.47-0.01,4.92,1.39,7.02
			c0.6,0.9,1.63,1.62,2.61,2.12c1.07,0.55,2.28,0.27,3.04-0.72c4.01-5.22,6.24-10.92,4.53-17.62c-0.21-0.81-0.41-1.63-0.54-2.45
			c-0.33-2.07,1.73-5.04,4.06-5.38c5.17-0.74,10.36-1.45,15.56-1.81c3.58-0.25,6.44,2.64,6.18,5.8c-0.13,1.62-0.53,3.22-0.85,4.82
			c-0.79,3.98-1.64,7.96-2.36,11.95c-0.17,0.95-0.03,2,0.16,2.97c0.66,3.47,3.76,5.17,7.07,3.93c2.47-0.93,4.28-2.74,6.02-4.63
			c1.46-1.58,2.27-3.2,2.22-5.59c-0.12-6.6,3.13-11.55,8.66-15c3.41-2.13,7.12-3.38,11.18-3.47c3.44-0.07,6.63,0.88,9.64,2.45
			c1.66,0.87,2.23,2.98,1.43,4.69c-0.82,1.74-2.82,2.56-4.64,1.87c-0.78-0.3-1.52-0.71-2.31-0.99c-5.37-1.86-12.31,0.55-15.24,5.42
			c-2.06,3.43-2.21,7,0.15,10.37c2.47,3.52,5.78,5.53,10.25,4.69c3.49-0.65,6.38-2.4,8.67-5.17c2.39-2.89,4.83-5.75,7.34-8.52
			c1.98-2.18,3.91-4.46,6.21-6.27c5.03-3.97,10.71-5.81,17.14-3.97c1.13,0.32,2.22,0.91,3.22,1.54c0.53,0.34,1.08,0.99,1.19,1.58
			c0.61,3.23,2.18,6.36,1.11,9.81c-0.23,0.75-0.11,1.67,0.08,2.46c0.99,4.08,2.6,7.89,5.29,11.16c1.49,1.81,3.07,3.47,5.78,3.31
			c0.42-0.03,1.21,0.79,1.24,1.25c0.03,0.47-0.6,1.3-1.07,1.41c-0.94,0.22-2,0.23-2.95,0.02c-5.15-1.12-9.41-3.66-12.49-8.31
			c-0.52,0.39-1.11,0.7-1.54,1.17c-3.88,4.25-8.67,5.93-14.27,4.76c-4.03-0.84-7.24-3.05-9.13-6.88
			C147.32,48.32,147.15,48.1,146.87,47.66z M169.16,32.35c-0.58-0.11-1.39-0.34-2.2-0.39c-3.15-0.21-5.84,1.04-8.32,2.81
			c-2.2,1.58-4.14,3.38-4.9,6.13c-1.03,3.74,0.82,6.72,4.65,7.43c4.61,0.86,9.92-3.9,10.13-8.98
			C168.61,37.11,168.92,34.88,169.16,32.35z"/>
		<path class="st0" d="M64.08,6.41c0.88,0.09,1.59,0.14,2.29,0.23c1.2,0.16,1.87,0.86,1.77,1.83c-0.09,0.93-0.82,1.51-1.97,1.49
			c-0.83-0.01-1.65-0.09-2.83-0.16c0.82,1.1,1.47,1.98,2.12,2.85c0.69,0.94,0.65,1.98-0.16,2.54c-0.87,0.61-1.69,0.4-2.35-0.35
			c-0.76-0.86-1.44-1.79-2.22-2.77c-0.65,0.69-1.26,1.36-1.89,2c-0.85,0.85-1.82,0.95-2.54,0.3c-0.74-0.67-0.72-1.6,0.07-2.55
			c0.33-0.4,0.71-0.76,1.05-1.14c0.34-0.38,0.67-0.78,1.16-1.35c-0.83-0.1-1.47-0.17-2.11-0.27c-1-0.15-1.61-0.69-1.59-1.75
			c0.02-0.95,0.79-1.57,1.9-1.54c0.92,0.02,1.85,0.01,2.74,0.17c0.96,0.18,1.28-0.21,1.43-1.07c0.1-0.58,0.28-1.17,0.54-1.7
			c0.37-0.78,1.06-1.09,1.9-0.85c0.83,0.24,1.27,0.86,1.17,1.72C64.49,4.78,64.27,5.51,64.08,6.41z"/>
	</g>
</g>
</svg>
